<svg xmlns="http://www.w3.org/2000/svg" xmlns:xlink="http://www.w3.org/1999/xlink" width="500" zoomAndPan="magnify" viewBox="0 0 375 374.999991" height="500" preserveAspectRatio="xMidYMid meet" version="1.0"><defs><g/><clipPath id="bfbda9806f"><path d="M 75 23.195312 L 300 23.195312 L 300 172 L 75 172 Z M 75 23.195312 " clip-rule="nonzero"/></clipPath><clipPath id="d28b6a69b0"><path d="M 146.050781 82.847656 L 229 82.847656 L 229 166 L 146.050781 166 Z M 146.050781 82.847656 " clip-rule="nonzero"/></clipPath></defs><path fill="#7ed957" d="M 116.039062 268.695312 C 112.636719 268.695312 109.28125 267.78125 106.285156 265.992188 C 101.894531 263.375 98.78125 259.207031 97.523438 254.253906 L 75.875 168.941406 C 74.621094 163.980469 75.367188 158.832031 77.984375 154.4375 C 80.601562 150.046875 84.769531 146.933594 89.722656 145.679688 L 92.175781 145.054688 C 102.40625 142.457031 112.84375 148.671875 115.4375 158.902344 L 137.078125 244.21875 C 138.335938 249.179688 137.589844 254.328125 134.972656 258.722656 C 132.355469 263.113281 128.183594 266.226562 123.230469 267.480469 L 120.78125 268.105469 C 119.210938 268.5 117.621094 268.695312 116.039062 268.695312 Z M 96.882812 151.601562 C 95.90625 151.601562 94.917969 151.722656 93.929688 151.972656 L 91.480469 152.597656 C 88.371094 153.386719 85.753906 155.339844 84.117188 158.09375 C 82.476562 160.847656 82.011719 164.082031 82.796875 167.1875 L 104.4375 252.503906 C 105.230469 255.613281 107.179688 258.230469 109.933594 259.867188 C 112.691406 261.507812 115.917969 261.976562 119.03125 261.191406 L 121.480469 260.566406 C 124.585938 259.777344 127.207031 257.824219 128.84375 255.070312 C 130.484375 252.316406 130.949219 249.082031 130.164062 245.976562 L 108.523438 160.660156 C 107.140625 155.230469 102.238281 151.601562 96.882812 151.601562 Z M 96.882812 151.601562 " fill-opacity="1" fill-rule="nonzero"/><path fill="#7ed957" d="M 93.660156 258.316406 C 81.914062 258.316406 71.183594 250.378906 68.167969 238.480469 L 57.585938 196.792969 C 55.859375 189.984375 56.886719 182.910156 60.480469 176.871094 C 64.074219 170.839844 69.804688 166.558594 76.613281 164.832031 L 78.402344 164.378906 C 80.316406 163.894531 82.257812 165.050781 82.738281 166.960938 L 104.492188 252.714844 C 104.976562 254.625 103.820312 256.566406 101.910156 257.050781 L 100.121094 257.507812 C 97.960938 258.054688 95.792969 258.316406 93.660156 258.316406 Z M 76.714844 172.25 C 72.476562 173.730469 68.933594 176.625 66.609375 180.527344 C 63.992188 184.925781 63.246094 190.078125 64.503906 195.039062 L 75.078125 236.730469 C 77.53125 246.410156 86.992188 252.492188 96.671875 250.941406 Z M 76.714844 172.25 " fill-opacity="1" fill-rule="nonzero"/><path fill="#7ed957" d="M 258.902344 268.691406 C 257.347656 268.691406 255.769531 268.5 254.195312 268.101562 L 251.746094 267.476562 C 246.792969 266.222656 242.617188 263.109375 240.003906 258.714844 C 237.386719 254.324219 236.640625 249.175781 237.898438 244.214844 L 259.539062 158.898438 C 260.796875 153.945312 263.910156 149.769531 268.300781 147.15625 C 272.695312 144.546875 277.84375 143.792969 282.800781 145.054688 L 285.253906 145.679688 C 290.207031 146.933594 294.378906 150.046875 296.992188 154.4375 C 299.609375 158.832031 300.355469 163.980469 299.101562 168.941406 L 277.457031 254.257812 C 275.261719 262.910156 267.453125 268.691406 258.902344 268.691406 Z M 278.074219 151.597656 C 275.945312 151.597656 273.839844 152.175781 271.957031 153.292969 C 269.199219 154.933594 267.25 157.546875 266.460938 160.65625 L 244.816406 245.972656 C 244.027344 249.078125 244.496094 252.308594 246.140625 255.066406 C 247.78125 257.820312 250.394531 259.773438 253.5 260.5625 L 255.953125 261.1875 C 262.367188 262.8125 268.910156 258.914062 270.539062 252.5 L 292.179688 167.183594 C 292.972656 164.074219 292.5 160.84375 290.859375 158.089844 C 289.214844 155.332031 286.605469 153.382812 283.496094 152.59375 L 281.046875 151.96875 C 280.066406 151.722656 279.066406 151.597656 278.074219 151.597656 Z M 278.074219 151.597656 " fill-opacity="1" fill-rule="nonzero"/><path fill="#7ed957" d="M 281.320312 258.316406 C 279.183594 258.316406 277.019531 258.054688 274.859375 257.507812 L 273.070312 257.050781 C 271.160156 256.566406 270.003906 254.625 270.492188 252.714844 L 292.242188 166.964844 C 292.730469 165.054688 294.671875 163.898438 296.578125 164.386719 L 298.367188 164.835938 C 305.179688 166.566406 310.90625 170.839844 314.5 176.878906 C 318.09375 182.910156 319.121094 189.988281 317.394531 196.796875 L 306.820312 238.492188 C 303.796875 250.378906 293.066406 258.316406 281.320312 258.316406 Z M 278.300781 250.933594 C 287.976562 252.492188 297.441406 246.40625 299.894531 236.726562 L 310.46875 195.03125 C 312.925781 185.351562 307.503906 175.492188 298.257812 172.246094 Z M 278.300781 250.933594 " fill-opacity="1" fill-rule="nonzero"/><g clip-path="url(#bfbda9806f)"><path fill="#7ed957" d="M 295.699219 171.410156 C 293.726562 171.410156 292.128906 169.808594 292.128906 167.839844 L 292.128906 135.113281 C 292.128906 107.164062 281.246094 80.886719 261.480469 61.121094 C 241.71875 41.359375 215.441406 30.476562 187.492188 30.476562 C 159.542969 30.476562 133.257812 41.359375 113.496094 61.121094 C 93.730469 80.886719 82.847656 107.164062 82.847656 135.113281 L 82.847656 167.839844 C 82.847656 169.808594 81.25 171.410156 79.277344 171.410156 C 77.308594 171.410156 75.710938 169.808594 75.710938 167.839844 L 75.710938 135.113281 C 75.710938 105.257812 87.335938 77.183594 108.449219 56.074219 C 129.5625 34.960938 157.632812 23.335938 187.492188 23.335938 C 217.347656 23.335938 245.421875 34.960938 266.53125 56.078125 C 287.640625 77.1875 299.273438 105.261719 299.273438 135.117188 L 299.273438 167.84375 C 299.265625 169.808594 297.671875 171.410156 295.699219 171.410156 Z M 295.699219 171.410156 " fill-opacity="1" fill-rule="nonzero"/></g><path fill="#7ed957" d="M 96.578125 151.070312 C 94.605469 151.070312 93.007812 149.472656 93.007812 147.5 L 93.007812 134.175781 C 93.007812 82.074219 135.390625 39.691406 187.492188 39.691406 C 189.460938 39.691406 191.058594 41.292969 191.058594 43.261719 C 191.058594 45.230469 189.460938 46.832031 187.492188 46.832031 C 139.332031 46.832031 100.144531 86.015625 100.144531 134.175781 L 100.144531 147.5 C 100.144531 149.472656 98.546875 151.070312 96.578125 151.070312 Z M 96.578125 151.070312 " fill-opacity="1" fill-rule="nonzero"/><path fill="#7ed957" d="M 278.40625 151.070312 C 276.433594 151.070312 274.835938 149.472656 274.835938 147.5 L 274.835938 134.175781 C 274.835938 86.011719 235.652344 46.832031 187.492188 46.832031 C 185.519531 46.832031 183.921875 45.230469 183.921875 43.261719 C 183.921875 41.292969 185.519531 39.691406 187.492188 39.691406 C 239.589844 39.691406 281.972656 82.074219 281.972656 134.175781 L 281.972656 147.5 C 281.972656 149.472656 280.375 151.070312 278.40625 151.070312 Z M 278.40625 151.070312 " fill-opacity="1" fill-rule="nonzero"/><g clip-path="url(#d28b6a69b0)"><path fill="#00bf63" d="M 228.9375 124.289062 C 228.9375 125.648438 228.871094 127.003906 228.738281 128.351562 C 228.605469 129.703125 228.40625 131.042969 228.144531 132.375 C 227.878906 133.707031 227.550781 135.023438 227.15625 136.320312 C 226.761719 137.621094 226.304688 138.894531 225.785156 140.148438 C 225.265625 141.40625 224.6875 142.628906 224.046875 143.828125 C 223.40625 145.023438 222.707031 146.1875 221.953125 147.316406 C 221.199219 148.445312 220.394531 149.53125 219.53125 150.582031 C 218.671875 151.632812 217.761719 152.636719 216.800781 153.59375 C 215.839844 154.554688 214.835938 155.464844 213.789062 156.328125 C 212.738281 157.1875 211.648438 157.996094 210.519531 158.75 C 209.390625 159.503906 208.230469 160.199219 207.03125 160.839844 C 205.835938 161.480469 204.609375 162.058594 203.355469 162.578125 C 202.101562 163.097656 200.824219 163.554688 199.527344 163.949219 C 198.226562 164.34375 196.914062 164.671875 195.582031 164.9375 C 194.25 165.203125 192.910156 165.402344 191.558594 165.535156 C 190.207031 165.667969 188.851562 165.734375 187.496094 165.734375 C 186.140625 165.734375 184.785156 165.667969 183.433594 165.535156 C 182.082031 165.402344 180.742188 165.203125 179.410156 164.9375 C 178.078125 164.671875 176.765625 164.34375 175.464844 163.949219 C 174.167969 163.554688 172.890625 163.097656 171.636719 162.578125 C 170.382812 162.058594 169.15625 161.480469 167.960938 160.839844 C 166.761719 160.199219 165.601562 159.503906 164.472656 158.75 C 163.34375 157.996094 162.253906 157.1875 161.203125 156.328125 C 160.15625 155.464844 159.152344 154.554688 158.191406 153.59375 C 157.230469 152.636719 156.320312 151.632812 155.460938 150.582031 C 154.597656 149.53125 153.792969 148.445312 153.035156 147.316406 C 152.28125 146.1875 151.585938 145.023438 150.945312 143.828125 C 150.304688 142.628906 149.726562 141.40625 149.207031 140.148438 C 148.6875 138.894531 148.230469 137.621094 147.835938 136.320312 C 147.441406 135.023438 147.113281 133.707031 146.847656 132.375 C 146.585938 131.042969 146.386719 129.703125 146.253906 128.351562 C 146.121094 127.003906 146.050781 125.648438 146.050781 124.289062 C 146.050781 122.933594 146.121094 121.578125 146.253906 120.226562 C 146.386719 118.878906 146.585938 117.535156 146.847656 116.207031 C 147.113281 114.875 147.441406 113.558594 147.835938 112.261719 C 148.230469 110.960938 148.6875 109.683594 149.207031 108.429688 C 149.726562 107.175781 150.304688 105.953125 150.945312 104.753906 C 151.585938 103.558594 152.28125 102.394531 153.035156 101.265625 C 153.792969 100.136719 154.597656 99.046875 155.460938 98 C 156.320312 96.949219 157.230469 95.945312 158.191406 94.984375 C 159.152344 94.027344 160.15625 93.117188 161.203125 92.253906 C 162.253906 91.394531 163.34375 90.585938 164.472656 89.832031 C 165.601562 89.078125 166.761719 88.378906 167.960938 87.742188 C 169.15625 87.101562 170.382812 86.519531 171.636719 86.003906 C 172.890625 85.484375 174.167969 85.027344 175.464844 84.632812 C 176.765625 84.238281 178.078125 83.910156 179.410156 83.644531 C 180.742188 83.378906 182.082031 83.179688 183.433594 83.046875 C 184.785156 82.914062 186.140625 82.847656 187.496094 82.847656 C 188.851562 82.847656 190.207031 82.914062 191.558594 83.046875 C 192.910156 83.179688 194.25 83.378906 195.582031 83.644531 C 196.914062 83.910156 198.226562 84.238281 199.527344 84.632812 C 200.824219 85.027344 202.101562 85.484375 203.355469 86.003906 C 204.609375 86.519531 205.835938 87.101562 207.03125 87.742188 C 208.230469 88.378906 209.390625 89.078125 210.519531 89.832031 C 211.648438 90.585938 212.738281 91.394531 213.789062 92.253906 C 214.835938 93.117188 215.839844 94.027344 216.800781 94.984375 C 217.761719 95.945312 218.671875 96.949219 219.53125 98 C 220.394531 99.046875 221.199219 100.136719 221.953125 101.265625 C 222.707031 102.394531 223.40625 103.558594 224.046875 104.753906 C 224.6875 105.953125 225.265625 107.175781 225.785156 108.429688 C 226.304688 109.683594 226.761719 110.960938 227.15625 112.261719 C 227.546875 113.558594 227.878906 114.875 228.144531 116.207031 C 228.40625 117.535156 228.605469 118.878906 228.738281 120.226562 C 228.871094 121.578125 228.9375 122.933594 228.9375 124.289062 Z M 228.9375 124.289062 " fill-opacity="1" fill-rule="nonzero"/></g><path fill="#f1f6e1" d="M 215.882812 128.765625 C 215.054688 128.765625 214.433594 128.0625 214.433594 127.234375 L 214.433594 121.761719 C 214.433594 120.933594 215.054688 120.230469 215.882812 120.230469 C 216.714844 120.230469 217.335938 120.933594 217.335938 121.761719 L 217.335938 127.273438 C 217.335938 128.101562 216.714844 128.765625 215.882812 128.765625 Z M 215.882812 128.765625 " fill-opacity="1" fill-rule="nonzero"/><path fill="#f1f6e1" d="M 162.835938 128.765625 C 162.007812 128.765625 161.386719 128.0625 161.386719 127.234375 L 161.386719 121.761719 C 161.386719 120.933594 162.007812 120.230469 162.835938 120.230469 C 163.667969 120.230469 164.289062 120.933594 164.289062 121.761719 L 164.289062 127.273438 C 164.289062 128.101562 163.667969 128.765625 162.835938 128.765625 Z M 162.835938 128.765625 " fill-opacity="1" fill-rule="nonzero"/><path fill="#f1f6e1" d="M 174.441406 146.214844 C 173.570312 146.214844 172.992188 145.386719 172.992188 144.390625 L 172.992188 104.605469 C 172.992188 103.609375 173.570312 102.78125 174.441406 102.78125 C 175.3125 102.78125 175.890625 103.609375 175.890625 104.605469 L 175.890625 144.433594 C 175.890625 145.425781 175.269531 146.214844 174.441406 146.214844 Z M 174.441406 146.214844 " fill-opacity="1" fill-rule="nonzero"/><path fill="#f1f6e1" d="M 168.226562 136.476562 C 167.355469 136.476562 166.773438 135.769531 166.773438 134.941406 L 166.773438 114.09375 C 166.773438 113.226562 167.355469 112.5625 168.226562 112.5625 C 169.09375 112.5625 169.675781 113.265625 169.675781 114.09375 L 169.675781 134.941406 C 169.675781 135.769531 169.054688 136.476562 168.226562 136.476562 Z M 168.226562 136.476562 " fill-opacity="1" fill-rule="nonzero"/><path fill="#f1f6e1" d="M 180.449219 136.476562 C 179.582031 136.476562 178.792969 135.769531 178.792969 134.941406 L 178.792969 114.09375 C 178.792969 113.226562 179.582031 112.5625 180.449219 112.5625 C 181.320312 112.5625 182.109375 113.265625 182.109375 114.09375 L 182.109375 134.941406 C 182.109375 135.769531 181.28125 136.476562 180.449219 136.476562 Z M 180.449219 136.476562 " fill-opacity="1" fill-rule="nonzero"/><path fill="#f1f6e1" d="M 192.054688 136.476562 C 191.183594 136.476562 190.398438 135.769531 190.398438 134.941406 L 190.398438 114.09375 C 190.398438 113.226562 191.183594 112.5625 192.054688 112.5625 C 192.925781 112.5625 193.710938 113.265625 193.710938 114.09375 L 193.710938 134.941406 C 193.710938 135.769531 192.882812 136.476562 192.054688 136.476562 Z M 192.054688 136.476562 " fill-opacity="1" fill-rule="nonzero"/><path fill="#f1f6e1" d="M 204.28125 136.476562 C 203.410156 136.476562 202.828125 135.769531 202.828125 134.941406 L 202.828125 114.09375 C 202.828125 113.226562 203.410156 112.5625 204.28125 112.5625 C 205.152344 112.5625 205.730469 113.265625 205.730469 114.09375 L 205.730469 134.941406 C 205.730469 135.769531 205.109375 136.476562 204.28125 136.476562 Z M 204.28125 136.476562 " fill-opacity="1" fill-rule="nonzero"/><path fill="#f1f6e1" d="M 198.269531 131.046875 C 197.402344 131.046875 196.613281 130.339844 196.613281 129.511719 L 196.613281 119.484375 C 196.613281 118.613281 197.402344 117.949219 198.269531 117.949219 C 199.140625 117.949219 199.929688 118.65625 199.929688 119.484375 L 199.929688 129.511719 C 199.929688 130.382812 199.101562 131.046875 198.269531 131.046875 Z M 198.269531 131.046875 " fill-opacity="1" fill-rule="nonzero"/><path fill="#f1f6e1" d="M 210.496094 131.003906 C 209.625 131.003906 209.046875 130.300781 209.046875 129.472656 L 209.046875 119.398438 C 209.046875 118.53125 209.625 117.867188 210.496094 117.867188 C 211.367188 117.867188 211.949219 118.570312 211.949219 119.398438 L 211.949219 129.429688 C 211.949219 130.300781 211.324219 131.003906 210.496094 131.003906 Z M 210.496094 131.003906 " fill-opacity="1" fill-rule="nonzero"/><path fill="#f1f6e1" d="M 186.460938 131.046875 C 185.589844 131.046875 185.007812 130.339844 185.007812 129.511719 L 185.007812 119.484375 C 185.007812 118.613281 185.589844 117.949219 186.460938 117.949219 C 187.332031 117.949219 187.910156 118.65625 187.910156 119.484375 L 187.910156 129.511719 C 187.910156 130.382812 187.289062 131.046875 186.460938 131.046875 Z M 186.460938 131.046875 " fill-opacity="1" fill-rule="nonzero"/><g fill="#00bf63" fill-opacity="1"><g transform="translate(126.560696, 327.69991)"><g><path d="M 2.484375 -37.828125 C 2.742188 -40.253906 3.460938 -42.097656 4.640625 -43.359375 C 5.816406 -44.617188 7.65625 -45.25 10.15625 -45.25 C 12.664062 -45.25 14.410156 -44.625 15.390625 -43.375 C 15.929688 -42.695312 16.351562 -42.019531 16.65625 -41.34375 C 17.300781 -39.96875 17.628906 -36.695312 17.640625 -31.53125 L 17.640625 -29.015625 L 13.765625 -29.015625 L 13.765625 -31.8125 C 13.765625 -35.738281 13.632812 -38.113281 13.375 -38.9375 C 13.125 -39.769531 12.863281 -40.398438 12.59375 -40.828125 C 12.101562 -41.609375 11.222656 -42 9.953125 -42 C 7.378906 -42 6.09375 -39.601562 6.09375 -34.8125 C 6.09375 -33.132812 6.253906 -31.992188 6.578125 -31.390625 C 6.898438 -30.796875 7.140625 -30.328125 7.296875 -29.984375 C 7.460938 -29.648438 8.539062 -28.484375 10.53125 -26.484375 L 12.96875 -24.015625 C 16.582031 -20.304688 18.390625 -16.050781 18.390625 -11.25 C 18.390625 -6.457031 17.695312 -3.296875 16.3125 -1.765625 C 14.9375 -0.242188 12.894531 0.515625 10.1875 0.515625 C 6.019531 0.515625 3.625 -2 3 -7.03125 C 2.78125 -8.726562 2.671875 -10.8125 2.671875 -13.28125 L 2.671875 -17.921875 L 6.53125 -17.921875 L 6.53125 -13.359375 C 6.53125 -9.328125 6.796875 -6.550781 7.328125 -5.03125 C 7.859375 -3.507812 8.941406 -2.75 10.578125 -2.75 C 12.222656 -2.75 13.269531 -3.242188 13.71875 -4.234375 C 14.164062 -5.222656 14.410156 -6.414062 14.453125 -7.8125 C 14.503906 -9.21875 14.53125 -10.726562 14.53125 -12.34375 C 14.53125 -15.65625 13.21875 -18.59375 10.59375 -21.15625 L 8 -23.609375 C 5.726562 -25.828125 4.210938 -27.691406 3.453125 -29.203125 C 2.691406 -30.722656 2.3125 -32.265625 2.3125 -33.828125 C 2.3125 -35.398438 2.367188 -36.734375 2.484375 -37.828125 Z M 2.484375 -37.828125 "/></g></g></g><g fill="#00bf63" fill-opacity="1"><g transform="translate(146.74473, 327.69991)"><g><path d="M 15.796875 -31.203125 L 15.796875 -32.40625 C 15.796875 -35.6875 15.546875 -38.03125 15.046875 -39.4375 C 14.546875 -40.84375 13.539062 -41.546875 12.03125 -41.546875 L 7.84375 -41.546875 L 7.84375 -20.6875 L 11.859375 -20.6875 C 13.410156 -20.6875 14.453125 -21.425781 14.984375 -22.90625 C 15.523438 -24.394531 15.796875 -27.160156 15.796875 -31.203125 Z M 4.0625 -44.6875 L 11.828125 -44.6875 C 13.660156 -44.6875 15.101562 -44.34375 16.15625 -43.65625 C 17.21875 -42.96875 17.925781 -42.203125 18.28125 -41.359375 C 18.894531 -39.835938 19.265625 -38.359375 19.390625 -36.921875 C 19.515625 -35.484375 19.578125 -33.75 19.578125 -31.71875 L 19.578125 -31.25 C 19.578125 -27.375 19.332031 -24.640625 18.84375 -23.046875 C 18.363281 -21.460938 17.820312 -20.320312 17.21875 -19.625 C 15.976562 -18.207031 14.109375 -17.5 11.609375 -17.5 L 7.84375 -17.5 L 7.84375 0 L 4.0625 0 Z M 4.0625 -44.6875 "/></g></g></g><g fill="#00bf63" fill-opacity="1"><g transform="translate(168.147423, 327.69991)"><g><path d="M 15.34375 -32.5 C 15.34375 -36.050781 15.082031 -38.546875 14.5625 -39.984375 C 14.039062 -41.429688 12.984375 -42.15625 11.390625 -42.15625 C 9.804688 -42.15625 8.707031 -41.410156 8.09375 -39.921875 C 7.488281 -38.441406 7.1875 -35.976562 7.1875 -32.53125 L 7.1875 -13.171875 C 7.1875 -9.066406 7.394531 -6.4375 7.8125 -5.28125 C 8.238281 -4.132812 8.707031 -3.398438 9.21875 -3.078125 C 9.738281 -2.753906 10.421875 -2.59375 11.265625 -2.59375 C 12.117188 -2.59375 12.796875 -2.753906 13.296875 -3.078125 C 13.804688 -3.398438 14.273438 -4.128906 14.703125 -5.265625 C 15.128906 -6.410156 15.34375 -9.046875 15.34375 -13.171875 Z M 3.40625 -32.203125 C 3.40625 -37.597656 4.082031 -41.117188 5.4375 -42.765625 C 6.789062 -44.421875 8.867188 -45.25 11.671875 -45.25 C 14.484375 -45.25 16.425781 -44.332031 17.5 -42.5 C 18.207031 -41.269531 18.65625 -39.832031 18.84375 -38.1875 C 19.03125 -36.539062 19.125 -34.546875 19.125 -32.203125 L 19.125 -13.171875 C 19.125 -9.296875 18.890625 -6.566406 18.421875 -4.984375 C 17.953125 -3.398438 17.429688 -2.269531 16.859375 -1.59375 C 15.640625 -0.1875 13.785156 0.515625 11.296875 0.515625 C 7.585938 0.515625 5.269531 -1.085938 4.34375 -4.296875 C 3.71875 -6.390625 3.40625 -9.347656 3.40625 -13.171875 Z M 3.40625 -32.203125 "/></g></g></g><g fill="#00bf63" fill-opacity="1"><g transform="translate(190.66722, 327.69991)"><g><path d="M 1.015625 -44.6875 L 13.640625 -44.6875 L 13.640625 -41.75 L 9.453125 -41.75 L 9.453125 0 L 5.6875 0 L 5.6875 -41.75 L 1.015625 -41.75 Z M 1.015625 -44.6875 "/></g></g></g><g fill="#00bf63" fill-opacity="1"><g transform="translate(205.316515, 327.69991)"><g><path d="M 4.515625 -44.6875 L 8.296875 -44.6875 L 8.296875 0 L 4.515625 0 Z M 4.515625 -44.6875 "/></g></g></g><g fill="#00bf63" fill-opacity="1"><g transform="translate(218.112428, 327.69991)"><g><path d="M 4.0625 -44.6875 L 15.796875 -44.6875 L 15.796875 -41.75 L 7.828125 -41.75 L 7.828125 -25.515625 L 15.359375 -25.515625 L 15.359375 -22.5 L 7.828125 -22.5 L 7.828125 0 L 4.0625 0 Z M 4.0625 -44.6875 "/></g></g></g><g fill="#00bf63" fill-opacity="1"><g transform="translate(235.630641, 327.69991)"><g><path d="M 4.515625 -44.6875 L 8.296875 -44.6875 L 8.296875 0 L 4.515625 0 Z M 4.515625 -44.6875 "/></g></g></g></svg>